<mxfile host="app.diagrams.net" modified="2024-03-28T12:38:10.343Z" agent="Mozilla/5.0 (Windows NT 10.0; Win64; x64) AppleWebKit/537.36 (KHTML, like Gecko) Chrome/122.0.0.0 Safari/537.36 Edg/122.0.0.0" version="24.2.0" etag="Ix2mUIZW14SSJn4f4AdQ" type="github">
  <diagram name="第 1 页" id="B0zzKdLnN7VyZFPrtqK-">
    <mxGraphModel>
      <root>
        <mxCell id="0" />
        <mxCell id="1" parent="0" />
      </root>
    </mxGraphModel>
  </diagram>
</mxfile>
